<svg xmlns="http://www.w3.org/2000/svg" viewBox="0 0 128 128" role="img" aria-label="artillery icon">
<title>artillery</title>
<defs><style>.bg{fill:#151515}.fg{fill:#e8e2d0}.st{stroke:#e8e2d0;stroke-width:5;stroke-linecap:round;stroke-linejoin:round;fill:none}.dark{fill:#151515}.acc{fill:#b8a66a}</style></defs>
<path class="bg" d="M64 6 112 24v38c0 30-20 50-48 60C36 112 16 92 16 62V24L64 6Z"/>
<path class="st" d="M64 8 110 25v37c0 28-19 48-46 58-27-10-46-30-46-58V25L64 8Z"/>
<path class="fg" d="M33 79h62v10H33zM43 69h42v9H43zM55 51h18v18H55z"/><path class="st" d="M36 69 78 42M78 42h16M34 91h60"/><circle class="fg" cx="38" cy="91" r="8"/><circle class="fg" cx="90" cy="91" r="8"/><path class="acc" d="M88 30l8 9-12 3z"/>
</svg>
