<svg xmlns="http://www.w3.org/2000/svg" viewBox="0 0 128 128" role="img" aria-labelledby="title">
<title>Battlesuit unit class icon</title>
<defs>
  <style>
    .bg{fill:#12100e;}
    .ring{fill:none;stroke:#d8c27a;stroke-width:6;stroke-linejoin:round;}
    .gold{fill:#d8c27a;}
    .dark{fill:#12100e;}
    .line{fill:none;stroke:#d8c27a;stroke-width:7;stroke-linecap:round;stroke-linejoin:round;}
    .thin{fill:none;stroke:#d8c27a;stroke-width:4;stroke-linecap:round;stroke-linejoin:round;}
    .cut{fill:none;stroke:#12100e;stroke-width:6;stroke-linecap:round;stroke-linejoin:round;}
  </style>
</defs>
<path class="bg" d="M64 6 111 24v38c0 30-19 51-47 60C36 113 17 92 17 62V24L64 6Z"/>
<path class="ring" d="M64 10 106 27v35c0 27-17 46-42 55-25-9-42-28-42-55V27L64 10Z"/>

<path class="gold" d="M45 34h38v34H45z"/><path class="dark" d="M55 43h18v10H55z"/><path class="gold" d="M38 55h15v26H38zM75 55h15v26H75z"/><path class="line" d="M39 72 28 86M89 72l11 14M54 70l-8 29M74 70l8 29"/><path class="line" d="M34 101h22M72 101h22"/><path class="gold" d="M58 23h12l5 11H53z"/><path class="dark" d="M43 60h10v9H43zM75 60h10v9H75z"/>
</svg>
