<svg xmlns="http://www.w3.org/2000/svg" viewBox="0 0 128 128" role="img" aria-label="dreadnought icon">
<title>dreadnought</title>
<defs><style>.bg{fill:#151515}.fg{fill:#e8e2d0}.st{stroke:#e8e2d0;stroke-width:5;stroke-linecap:round;stroke-linejoin:round;fill:none}.dark{fill:#151515}.acc{fill:#b8a66a}</style></defs>
<path class="bg" d="M64 6 112 24v38c0 30-20 50-48 60C36 112 16 92 16 62V24L64 6Z"/>
<path class="st" d="M64 8 110 25v37c0 28-19 48-46 58-27-10-46-30-46-58V25L64 8Z"/>
<path class="fg" d="M38 28h52v50H38zM31 42h14v36H31zM83 42h14v36H83zM48 78h11v22H48zM69 78h11v22H69z"/><path class="dark" d="M51 41h26v14H51z"/><path class="acc" d="M56 45h16v6H56z"/><path class="st" d="M34 97h60M31 54H18M97 54h13M24 48l-8 6 8 6"/>
</svg>
