<svg xmlns="http://www.w3.org/2000/svg" viewBox="0 0 128 128" role="img" aria-label="elite icon">
<title>elite</title>
<defs><style>.bg{fill:#151515}.fg{fill:#e8e2d0}.st{stroke:#e8e2d0;stroke-width:5;stroke-linecap:round;stroke-linejoin:round;fill:none}.dark{fill:#151515}.acc{fill:#b8a66a}</style></defs>
<path class="bg" d="M64 6 112 24v38c0 30-20 50-48 60C36 112 16 92 16 62V24L64 6Z"/>
<path class="st" d="M64 8 110 25v37c0 28-19 48-46 58-27-10-46-30-46-58V25L64 8Z"/>
<path class="fg" d="M64 23l12 24 27 4-20 18 5 27-24-13-24 13 5-27-20-18 27-4 12-24Z"/><path class="dark" d="M64 47l5 10 11 2-8 8 2 11-10-5-10 5 2-11-8-8 11-2z"/><path class="acc" d="M64 34l6 12H58z"/>
</svg>
