<svg xmlns="http://www.w3.org/2000/svg" viewBox="0 0 128 128" role="img" aria-label="epic-hero icon">
<title>epic-hero</title>
<defs><style>.bg{fill:#151515}.fg{fill:#e8e2d0}.st{stroke:#e8e2d0;stroke-width:5;stroke-linecap:round;stroke-linejoin:round;fill:none}.dark{fill:#151515}.acc{fill:#b8a66a}</style></defs>
<path class="bg" d="M64 6 112 24v38c0 30-20 50-48 60C36 112 16 92 16 62V24L64 6Z"/>
<path class="st" d="M64 8 110 25v37c0 28-19 48-46 58-27-10-46-30-46-58V25L64 8Z"/>
<path class="fg" d="M64 22c15 0 27 12 27 27 0 18-15 31-27 45-12-14-27-27-27-45 0-15 12-27 27-27Z"/><path class="dark" d="M52 48c0-7 5-13 12-13s12 6 12 13-5 13-12 13-12-6-12-13Z"/><path class="acc" d="M64 30l7 13 15 2-11 10 3 15-14-7-14 7 3-15-11-10 15-2z"/><path class="st" d="M42 94h44M50 104h28"/>
</svg>
