<svg xmlns="http://www.w3.org/2000/svg" viewBox="0 0 128 128" role="img" aria-labelledby="title">
<title>Epic Hero unit class icon</title>
<defs>
  <style>
    .bg{fill:#12100e;}
    .ring{fill:none;stroke:#d8c27a;stroke-width:6;stroke-linejoin:round;}
    .gold{fill:#d8c27a;}
    .dark{fill:#12100e;}
    .line{fill:none;stroke:#d8c27a;stroke-width:7;stroke-linecap:round;stroke-linejoin:round;}
    .thin{fill:none;stroke:#d8c27a;stroke-width:4;stroke-linecap:round;stroke-linejoin:round;}
    .cut{fill:none;stroke:#12100e;stroke-width:6;stroke-linecap:round;stroke-linejoin:round;}
  </style>
</defs>
<path class="bg" d="M64 6 111 24v38c0 30-19 51-47 60C36 113 17 92 17 62V24L64 6Z"/>
<path class="ring" d="M64 10 106 27v35c0 27-17 46-42 55-25-9-42-28-42-55V27L64 10Z"/>

<circle class="gold" cx="64" cy="43" r="14"/><path class="gold" d="M39 91c5-23 16-34 25-34s20 11 25 34H39Z"/><path class="dark" d="M53 36h22v8H53z"/><path class="gold" d="M64 15l7 15H57l7-15Z"/><path class="gold" d="M35 37l13 8-6 7-13-8zM93 37l-13 8 6 7 13-8z"/><path class="thin" d="M42 101h44M50 82h28"/>
</svg>
