<svg xmlns="http://www.w3.org/2000/svg" viewBox="0 0 128 128" role="img" aria-labelledby="title">
<title>Fly unit class icon</title>
<defs>
  <style>
    .bg{fill:#12100e;}
    .ring{fill:none;stroke:#d8c27a;stroke-width:6;stroke-linejoin:round;}
    .gold{fill:#d8c27a;}
    .dark{fill:#12100e;}
    .line{fill:none;stroke:#d8c27a;stroke-width:7;stroke-linecap:round;stroke-linejoin:round;}
    .thin{fill:none;stroke:#d8c27a;stroke-width:4;stroke-linecap:round;stroke-linejoin:round;}
    .cut{fill:none;stroke:#12100e;stroke-width:6;stroke-linecap:round;stroke-linejoin:round;}
  </style>
</defs>
<path class="bg" d="M64 6 111 24v38c0 30-19 51-47 60C36 113 17 92 17 62V24L64 6Z"/>
<path class="ring" d="M64 10 106 27v35c0 27-17 46-42 55-25-9-42-28-42-55V27L64 10Z"/>

<path class="gold" d="M64 24 76 67l34 13-29 6-17 22-17-22-29-6 34-13 12-43Z"/><path class="dark" d="M64 45 58 72h12z"/><path class="dark" d="M45 82h38l-19 12z"/><path class="thin" d="M38 38c-9 8-14 17-15 28M90 38c9 8 14 17 15 28"/>
</svg>
