<svg xmlns="http://www.w3.org/2000/svg" viewBox="0 0 128 128" role="img" aria-labelledby="title">
<title>Fortification unit class icon</title>
<defs>
  <style>
    .bg{fill:#12100e;}
    .ring{fill:none;stroke:#d8c27a;stroke-width:6;stroke-linejoin:round;}
    .gold{fill:#d8c27a;}
    .dark{fill:#12100e;}
    .line{fill:none;stroke:#d8c27a;stroke-width:7;stroke-linecap:round;stroke-linejoin:round;}
    .thin{fill:none;stroke:#d8c27a;stroke-width:4;stroke-linecap:round;stroke-linejoin:round;}
    .cut{fill:none;stroke:#12100e;stroke-width:6;stroke-linecap:round;stroke-linejoin:round;}
  </style>
</defs>
<path class="bg" d="M64 6 111 24v38c0 30-19 51-47 60C36 113 17 92 17 62V24L64 6Z"/>
<path class="ring" d="M64 10 106 27v35c0 27-17 46-42 55-25-9-42-28-42-55V27L64 10Z"/>

<path class="gold" d="M33 37h15v13h10V37h12v13h10V37h15v59H33V37Z"/>
<path class="dark" d="M55 72h18v24H55z"/>
<path class="dark" d="M42 58h11v11H42zM75 58h11v11H75z"/>
<path class="line" d="M28 97h72"/>

</svg>