<svg xmlns="http://www.w3.org/2000/svg" viewBox="0 0 128 128" role="img" aria-label="medic icon">
<title>medic</title>
<defs><style>.bg{fill:#151515}.fg{fill:#e8e2d0}.st{stroke:#e8e2d0;stroke-width:5;stroke-linecap:round;stroke-linejoin:round;fill:none}.dark{fill:#151515}.acc{fill:#b8a66a}</style></defs>
<path class="bg" d="M64 6 112 24v38c0 30-20 50-48 60C36 112 16 92 16 62V24L64 6Z"/>
<path class="st" d="M64 8 110 25v37c0 28-19 48-46 58-27-10-46-30-46-58V25L64 8Z"/>
<path class="fg" d="M54 25h20v28h28v20H74v28H54V73H26V53h28z"/><path class="dark" d="M61 33h6v28h28v5H67v28h-6V66H33v-5h28z"/><path class="acc" d="M54 25h20v10H54z"/>
</svg>
