<svg xmlns="http://www.w3.org/2000/svg" viewBox="0 0 128 128" role="img" aria-labelledby="title">
<title>Monster unit class icon</title>
<defs>
  <style>
    .bg{fill:#12100e;}
    .ring{fill:none;stroke:#d8c27a;stroke-width:6;stroke-linejoin:round;}
    .gold{fill:#d8c27a;}
    .dark{fill:#12100e;}
    .line{fill:none;stroke:#d8c27a;stroke-width:7;stroke-linecap:round;stroke-linejoin:round;}
    .thin{fill:none;stroke:#d8c27a;stroke-width:4;stroke-linecap:round;stroke-linejoin:round;}
    .cut{fill:none;stroke:#12100e;stroke-width:6;stroke-linecap:round;stroke-linejoin:round;}
  </style>
</defs>
<path class="bg" d="M64 6 111 24v38c0 30-19 51-47 60C36 113 17 92 17 62V24L64 6Z"/>
<path class="ring" d="M64 10 106 27v35c0 27-17 46-42 55-25-9-42-28-42-55V27L64 10Z"/>

<path class="gold" d="M36 87 47 35l17 22 17-22 11 52H36Z"/>
<path class="dark" d="M50 66h9v9h-9zM69 66h9v9h-9zM55 84h18v8H55z"/>
<path class="gold" d="M43 38 29 22l24 7zM85 38l14-16-24 7z"/>
<path class="line" d="M36 95h56"/>

</svg>