<svg xmlns="http://www.w3.org/2000/svg" viewBox="0 0 128 128" role="img" aria-label="speed-freek icon">
<title>speed-freek</title>
<defs><style>.bg{fill:#151515}.fg{fill:#e8e2d0}.st{stroke:#e8e2d0;stroke-width:5;stroke-linecap:round;stroke-linejoin:round;fill:none}.dark{fill:#151515}.acc{fill:#b8a66a}</style></defs>
<path class="bg" d="M64 6 112 24v38c0 30-20 50-48 60C36 112 16 92 16 62V24L64 6Z"/>
<path class="st" d="M64 8 110 25v37c0 28-19 48-46 58-27-10-46-30-46-58V25L64 8Z"/>
<path class="fg" d="M27 78h74v13H27zM39 61h39l14 17H31l8-17Z"/><circle class="fg" cx="41" cy="94" r="11"/><circle class="fg" cx="87" cy="94" r="11"/><circle class="dark" cx="41" cy="94" r="5"/><circle class="dark" cx="87" cy="94" r="5"/><path class="acc" d="M75 41l26 6-22 12 5-10z"/><path class="st" d="M26 56h17M20 67h14M17 80h11"/>
</svg>
