<svg xmlns="http://www.w3.org/2000/svg" viewBox="0 0 128 128" role="img" aria-labelledby="title">
<title>Speed Freek unit class icon</title>
<defs>
  <style>
    .bg{fill:#12100e;}
    .ring{fill:none;stroke:#d8c27a;stroke-width:6;stroke-linejoin:round;}
    .gold{fill:#d8c27a;}
    .dark{fill:#12100e;}
    .line{fill:none;stroke:#d8c27a;stroke-width:7;stroke-linecap:round;stroke-linejoin:round;}
    .thin{fill:none;stroke:#d8c27a;stroke-width:4;stroke-linecap:round;stroke-linejoin:round;}
    .cut{fill:none;stroke:#12100e;stroke-width:6;stroke-linecap:round;stroke-linejoin:round;}
  </style>
</defs>
<path class="bg" d="M64 6 111 24v38c0 30-19 51-47 60C36 113 17 92 17 62V24L64 6Z"/>
<path class="ring" d="M64 10 106 27v35c0 27-17 46-42 55-25-9-42-28-42-55V27L64 10Z"/>

<path class="gold" d="M34 68h55l9 17H30l4-17Z"/><circle class="dark" cx="45" cy="87" r="9"/><circle class="dark" cx="82" cy="87" r="9"/><path class="gold" d="M49 49h29l10 19H41l8-19Z"/><path class="dark" d="M57 55h15l5 9H52z"/><path class="line" d="M31 50H18M35 39H22M97 56h13"/><path class="gold" d="M85 39l13 7-13 7z"/>
</svg>
